<?xml version="1.0" standalone="no"?>
<!DOCTYPE svg PUBLIC "-//W3C//DTD SVG 20010904//EN"
 "http://www.w3.org/TR/2001/REC-SVG-20010904/DTD/svg10.dtd">
<svg version="1.0" xmlns="http://www.w3.org/2000/svg"
 width="152.000000pt" height="152.000000pt" viewBox="0 0 152.000000 152.000000"
 preserveAspectRatio="xMidYMid meet">
<metadata>
Created by potrace 1.11, written by Peter Selinger 2001-2013
</metadata>
<g transform="translate(0.000000,152.000000) scale(0.100000,-0.100000)"
fill="#000000" stroke="none">
<path d="M0 760 l0 -760 270 0 270 0 0 760 0 760 -270 0 -270 0 0 -760z"/>
<path d="M975 1484 c30 -30 35 -41 30 -63 -10 -41 -26 -54 -60 -48 -63 10 -71
-21 -12 -48 36 -16 97 -69 97 -85 0 -15 16 -12 30 5 7 8 16 12 21 9 12 -7 11
-44 -1 -44 -5 0 -16 -10 -24 -22 -13 -21 -11 -32 17 -113 25 -74 31 -107 32
-185 2 -104 5 -113 79 -223 57 -86 58 -104 7 -124 -47 -18 -54 -31 -38 -72 10
-27 8 -33 -11 -54 -20 -21 -21 -25 -7 -37 20 -17 19 -33 -5 -55 -17 -15 -19
-26 -14 -66 6 -45 4 -50 -25 -80 -36 -35 -35 -35 -211 -9 -97 15 -126 11 -170
-26 -28 -24 -90 -117 -90 -136 0 -5 203 -8 450 -8 l450 0 0 760 0 760 -290 0
-291 0 36 -36z"/>
<path d="M947 906 c-61 -17 -73 -29 -20 -20 46 7 93 -1 93 -16 0 -5 -27 -28
-61 -51 l-61 -43 34 -12 c18 -6 35 -19 36 -28 7 -32 36 -13 43 28 4 22 13 44
20 50 8 6 22 25 31 42 14 25 15 34 5 42 -22 18 -71 21 -120 8z"/>
</g>
</svg>
