<?xml version="1.0"?>
<svg xmlns="http://www.w3.org/2000/svg" xmlns:xlink="http://www.w3.org/1999/xlink" class="" id="Capa_1" style="enable-background:new 0 0 51.976 51.976;" viewBox="0 0 51.976 51.976" x="0px" y="0px" width="512px" height="512px" version="1.1" xml:space="preserve"><g><g>
	<path class="active-path" d="M 44.373 7.603 c -10.137 -10.137 -26.632 -10.138 -36.77 0 c -10.138 10.138 -10.137 26.632 0 36.77 s 26.632 10.138 36.77 0 C 54.51 34.235 54.51 17.74 44.373 7.603 Z M 36.241 36.241 c -0.781 0.781 -2.047 0.781 -2.828 0 l -7.425 -7.425 l -7.778 7.778 c -0.781 0.781 -2.047 0.781 -2.828 0 c -0.781 -0.781 -0.781 -2.047 0 -2.828 l 7.778 -7.778 l -7.425 -7.425 c -0.781 -0.781 -0.781 -2.048 0 -2.828 c 0.781 -0.781 2.047 -0.781 2.828 0 l 7.425 7.425 l 7.071 -7.071 c 0.781 -0.781 2.047 -0.781 2.828 0 c 0.781 0.781 0.781 2.047 0 2.828 l -7.071 7.071 l 7.425 7.425 C 37.022 34.194 37.022 35.46 36.241 36.241 Z" data-original="#000000" data-old_color="#ffffff" fill="#ffffff"/>
</g></g> </svg>
