<?xml version="1.0"?>
<svg xmlns="http://www.w3.org/2000/svg" xmlns:xlink="http://www.w3.org/1999/xlink" class="" id="Capa_1" style="enable-background:new 0 0 56.966 56.966;" viewBox="0 0 56.966 56.966" x="0px" y="0px" width="512px" height="512px" version="1.1" xml:space="preserve"><g><path class="active-path" d="M 55.146 51.887 L 41.588 37.786 c 3.486 -4.144 5.396 -9.358 5.396 -14.786 c 0 -12.682 -10.318 -23 -23 -23 s -23 10.318 -23 23 s 10.318 23 23 23 c 4.761 0 9.298 -1.436 13.177 -4.162 l 13.661 14.208 c 0.571 0.593 1.339 0.92 2.162 0.92 c 0.779 0 1.518 -0.297 2.079 -0.837 C 56.255 54.982 56.293 53.08 55.146 51.887 Z M 23.984 6 c 9.374 0 17 7.626 17 17 s -7.626 17 -17 17 s -17 -7.626 -17 -17 S 14.61 6 23.984 6 Z" data-original="#000000" data-old_color="#ffffff" fill="#ffffff"/></g> </svg>
